<svg width="24" height="22" viewBox="0 0 24 22" fill="none" xmlns="http://www.w3.org/2000/svg">
<path d="M8.65659 17.4168H8.18289C4.39332 17.4168 2.49854 16.5002 2.49854 11.9168V7.3335C2.49854 3.66683 4.39332 1.8335 8.18289 1.8335H15.762C19.5516 1.8335 21.4464 3.66683 21.4464 7.3335V11.9168C21.4464 15.5835 19.5516 17.4168 15.762 17.4168H15.2883C14.9946 17.4168 14.7104 17.5543 14.5304 17.7835L13.1093 19.6168C12.4841 20.4235 11.4609 20.4235 10.8356 19.6168L9.4145 17.7835C9.26292 17.5818 8.91238 17.4168 8.65659 17.4168Z" stroke="#292D32" stroke-width="1.5" stroke-miterlimit="10" stroke-linecap="round" stroke-linejoin="round"/>
<path d="M7.23486 7.3335H16.7088" stroke="#292D32" stroke-width="1.5" stroke-linecap="round" stroke-linejoin="round"/>
<path d="M7.23486 11.9165H12.9192" stroke="#292D32" stroke-width="1.5" stroke-linecap="round" stroke-linejoin="round"/>
</svg>
