<svg width="21" height="22" viewBox="0 0 21 22" fill="none" xmlns="http://www.w3.org/2000/svg">
<path d="M7.09911 17.4168H6.68152C3.34078 17.4168 1.67041 16.5002 1.67041 11.9168V7.3335C1.67041 3.66683 3.34078 1.8335 6.68152 1.8335H13.363C16.7037 1.8335 18.3741 3.66683 18.3741 7.3335V11.9168C18.3741 15.5835 16.7037 17.4168 13.363 17.4168H12.9454C12.6865 17.4168 12.4359 17.5543 12.2773 17.7835L11.0245 19.6168C10.4733 20.4235 9.57126 20.4235 9.02004 19.6168L7.76726 17.7835C7.63363 17.5818 7.32461 17.4168 7.09911 17.4168Z" stroke="#292D32" stroke-width="1.5" stroke-miterlimit="10" stroke-linecap="round" stroke-linejoin="round"/>
<path d="M5.84619 7.3335H14.198" stroke="#292D32" stroke-width="1.5" stroke-linecap="round" stroke-linejoin="round"/>
<path d="M5.84619 11.9165H10.8573" stroke="#292D32" stroke-width="1.5" stroke-linecap="round" stroke-linejoin="round"/>
</svg>
