<svg width="100" height="40" viewBox="0 0 100 40" fill="none" xmlns="http://www.w3.org/2000/svg">
<rect width="100" height="40" rx="8" fill="#DC5151"/>
<path d="M28 27.6462L26.7916 26.5462C22.5 22.6545 19.6666 20.0878 19.6666 16.9378C19.6666 14.3712 21.6833 12.3545 24.25 12.3545C25.7 12.3545 27.0916 13.0295 28 14.0962C28.9083 13.0295 30.3 12.3545 31.75 12.3545C34.3166 12.3545 36.3333 14.3712 36.3333 16.9378C36.3333 20.0878 33.5 22.6545 29.2083 26.5545L28 27.6462Z" fill="white"/>
<path d="M48.474 17.146H50.336V18.938H48.474V17.146ZM48.152 14.192H49.762V14.528C49.762 14.8733 49.692 15.2047 49.552 15.522C49.412 15.8393 49.202 16.1333 48.922 16.404C48.6513 16.6653 48.306 16.8987 47.886 17.104C47.4753 17.3093 46.9947 17.4773 46.444 17.608C45.9027 17.7387 45.3007 17.8273 44.638 17.874L44.064 16.474C44.6333 16.446 45.1373 16.39 45.576 16.306C46.024 16.2127 46.4067 16.1007 46.724 15.97C47.0507 15.8393 47.3167 15.6993 47.522 15.55C47.7367 15.3913 47.8953 15.2233 47.998 15.046C48.1007 14.8687 48.152 14.696 48.152 14.528V14.192ZM49.09 14.192H50.7V14.528C50.7 14.696 50.7513 14.8687 50.854 15.046C50.9567 15.2233 51.1107 15.3913 51.316 15.55C51.5307 15.6993 51.7967 15.8393 52.114 15.97C52.4407 16.1007 52.8233 16.2127 53.262 16.306C53.71 16.39 54.2233 16.446 54.802 16.474L54.228 17.874C53.556 17.8273 52.9447 17.7387 52.394 17.608C51.8527 17.4773 51.3767 17.314 50.966 17.118C50.5553 16.9127 50.21 16.6793 49.93 16.418C49.65 16.1473 49.44 15.8533 49.3 15.536C49.16 15.2187 49.09 14.8827 49.09 14.528V14.192ZM44.638 13.59H54.242V15.004H44.638V13.59ZM44.624 21.094H54.214V22.494H44.624V21.094ZM43.574 18.322H55.306V19.778H43.574V18.322ZM49.398 22.858C50.658 22.858 51.6333 23.0073 52.324 23.306C53.0147 23.5953 53.36 24.0153 53.36 24.566C53.36 25.126 53.0147 25.5507 52.324 25.84C51.6333 26.1293 50.658 26.274 49.398 26.274C48.1473 26.274 47.1767 26.1293 46.486 25.84C45.7953 25.5507 45.45 25.126 45.45 24.566C45.45 24.0153 45.7953 23.5953 46.486 23.306C47.1767 23.0073 48.1473 22.858 49.398 22.858ZM49.398 24.09C48.726 24.09 48.222 24.1273 47.886 24.202C47.55 24.2673 47.382 24.3887 47.382 24.566C47.382 24.7433 47.55 24.8693 47.886 24.944C48.222 25.0187 48.726 25.056 49.398 25.056C50.0793 25.056 50.588 25.0187 50.924 24.944C51.2693 24.8693 51.442 24.7433 51.442 24.566C51.442 24.3887 51.2693 24.2673 50.924 24.202C50.588 24.1273 50.0793 24.09 49.398 24.09ZM48.488 20.184H50.336V21.92H48.488V20.184ZM60.0249 14.164C60.6876 14.164 61.2709 14.3553 61.7749 14.738C62.2882 15.1113 62.6896 15.648 62.9789 16.348C63.2776 17.0387 63.4269 17.8553 63.4269 18.798C63.4269 19.75 63.2776 20.576 62.9789 21.276C62.6896 21.9667 62.2882 22.5033 61.7749 22.886C61.2709 23.2593 60.6876 23.446 60.0249 23.446C59.3622 23.446 58.7742 23.2593 58.2609 22.886C57.7476 22.5033 57.3416 21.9667 57.0429 21.276C56.7536 20.576 56.6089 19.75 56.6089 18.798C56.6089 17.8553 56.7536 17.0387 57.0429 16.348C57.3416 15.648 57.7476 15.1113 58.2609 14.738C58.7742 14.3553 59.3622 14.164 60.0249 14.164ZM60.0249 15.858C59.7076 15.858 59.4229 15.97 59.1709 16.194C58.9282 16.418 58.7369 16.7493 58.5969 17.188C58.4662 17.6173 58.4009 18.154 58.4009 18.798C58.4009 19.4327 58.4662 19.974 58.5969 20.422C58.7369 20.8607 58.9282 21.192 59.1709 21.416C59.4229 21.64 59.7076 21.752 60.0249 21.752C60.3422 21.752 60.6222 21.64 60.8649 21.416C61.1076 21.192 61.2942 20.8607 61.4249 20.422C61.5649 19.974 61.6349 19.4327 61.6349 18.798C61.6349 18.154 61.5649 17.6173 61.4249 17.188C61.2942 16.7493 61.1076 16.418 60.8649 16.194C60.6222 15.97 60.3422 15.858 60.0249 15.858ZM64.8269 13.282H66.7029V26.246H64.8269V13.282ZM66.2969 18.168H68.5789V19.694H66.2969V18.168ZM72.1078 19.862H73.9698V23.488H72.1078V19.862ZM76.8118 19.862H78.6738V23.488H76.8118V19.862ZM69.5318 23.222H81.2778V24.734H69.5318V23.222ZM75.3838 13.912C76.3171 13.912 77.1478 14.0567 77.8758 14.346C78.6131 14.6353 79.1871 15.0413 79.5978 15.564C80.0178 16.0773 80.2278 16.6887 80.2278 17.398C80.2278 18.098 80.0178 18.7093 79.5978 19.232C79.1871 19.7453 78.6131 20.1467 77.8758 20.436C77.1478 20.7253 76.3171 20.87 75.3838 20.87C74.4598 20.87 73.6291 20.7253 72.8918 20.436C72.1638 20.1467 71.5898 19.7453 71.1698 19.232C70.7498 18.7093 70.5398 18.098 70.5398 17.398C70.5398 16.6887 70.7498 16.0773 71.1698 15.564C71.5898 15.0413 72.1638 14.6353 72.8918 14.346C73.6291 14.0567 74.4598 13.912 75.3838 13.912ZM75.3838 15.354C74.7865 15.354 74.2591 15.438 73.8018 15.606C73.3538 15.7647 73.0038 15.9933 72.7518 16.292C72.4998 16.5907 72.3738 16.9593 72.3738 17.398C72.3738 17.818 72.4998 18.182 72.7518 18.49C73.0038 18.7887 73.3538 19.022 73.8018 19.19C74.2591 19.3487 74.7865 19.428 75.3838 19.428C75.9905 19.428 76.5178 19.3487 76.9658 19.19C77.4231 19.022 77.7731 18.7887 78.0158 18.49C78.2678 18.182 78.3938 17.818 78.3938 17.398C78.3938 16.9593 78.2678 16.5907 78.0158 16.292C77.7731 15.9933 77.4231 15.7647 76.9658 15.606C76.5178 15.438 75.9905 15.354 75.3838 15.354Z" fill="white"/>
</svg>
