<svg width="39" height="46" viewBox="0 0 39 46" fill="none" xmlns="http://www.w3.org/2000/svg">
<path d="M5.18234 0.939209C3.8079 0.939209 2.48975 1.4852 1.51787 2.45708C0.545995 3.42896 0 4.74711 0 6.12155V33.7607C0 35.1351 0.545995 36.4533 1.51787 37.4251C2.48975 38.397 3.8079 38.943 5.18234 38.943H25.9117C27.2861 38.943 28.6043 38.397 29.5762 37.4251C30.548 36.4533 31.094 35.1351 31.094 33.7607V14.6206C31.094 13.8729 30.9322 13.1341 30.6197 12.4548C30.3072 11.7755 29.8514 11.172 29.2837 10.6855L19.3681 2.18642C18.429 1.38163 17.233 0.939252 15.9961 0.939209H5.18234Z" fill="#DDE2E6"/>
<path fill-rule="evenodd" clip-rule="evenodd" d="M31.0939 14.6872V14.6181C31.0936 13.8707 30.9317 13.1322 30.6192 12.4533C30.3067 11.7743 29.8511 11.171 29.2835 10.6847L19.368 2.18569C18.4288 1.3809 17.2328 0.93852 15.996 0.938477H15.8405C15.6505 1.47917 15.5469 2.06132 15.5469 2.66592V9.5757C15.5469 10.9501 16.0929 12.2683 17.0647 13.2402C18.0366 14.212 19.3548 14.758 20.7292 14.758H30.2302C30.5238 14.758 30.8123 14.7339 31.0939 14.6872Z" fill="#AAB5BF"/>
<ellipse cx="29.4719" cy="36.0374" rx="9.41675" ry="9.41675" fill="#AAB5BF"/>
<path d="M33.409 34.2398L29.776 30.1153C29.6226 29.942 29.3279 29.942 29.1746 30.1153L25.5415 34.2398C25.4889 34.2988 25.4542 34.3722 25.4417 34.4511C25.4292 34.5299 25.4394 34.6107 25.4711 34.6837C25.5027 34.7567 25.5545 34.8188 25.62 34.8622C25.6856 34.9057 25.7621 34.9288 25.8403 34.9286H27.8586V42.3528C27.8586 42.5796 28.0402 42.7652 28.2623 42.7652H30.6843C30.9063 42.7652 31.0879 42.5796 31.0879 42.3528V34.9286H33.1063C33.2637 34.9286 33.409 34.8337 33.4736 34.6853C33.5382 34.5368 33.5099 34.3635 33.405 34.2398H33.409Z" fill="#DDE2E6"/>
</svg>
