<svg width="20" height="24" viewBox="0 0 20 24" fill="none" xmlns="http://www.w3.org/2000/svg">
<path d="M12.9833 12C12.9833 13.98 11.6499 15.58 9.99994 15.58C8.34993 15.58 7.0166 13.98 7.0166 12C7.0166 10.02 8.34993 8.41998 9.99994 8.41998C11.6499 8.41998 12.9833 10.02 12.9833 12Z" stroke="#292D32" stroke-width="1.5" stroke-linecap="round" stroke-linejoin="round"/>
<path d="M10.0001 20.27C12.9418 20.27 15.6834 18.19 17.5918 14.59C18.3418 13.18 18.3418 10.81 17.5918 9.39997C15.6834 5.79997 12.9418 3.71997 10.0001 3.71997C7.05845 3.71997 4.31678 5.79997 2.40845 9.39997C1.65845 10.81 1.65845 13.18 2.40845 14.59C4.31678 18.19 7.05845 20.27 10.0001 20.27Z" stroke="#292D32" stroke-width="1.5" stroke-linecap="round" stroke-linejoin="round"/>
</svg>
