<svg width="19" height="18" viewBox="0 0 19 18" fill="none" xmlns="http://www.w3.org/2000/svg">
<path d="M17.2451 7.83001L16.5101 10.965C15.8801 13.6725 14.6351 14.7675 12.2951 14.5425C11.9201 14.5125 11.5151 14.445 11.0801 14.34L9.82014 14.04C6.69263 13.2975 5.72513 11.7525 6.46013 8.61751L7.19513 5.47501C7.34513 4.83751 7.52513 4.28251 7.75013 3.82501C8.62763 2.01001 10.1201 1.52251 12.6251 2.11501L13.8776 2.40751C17.0201 3.14251 17.9801 4.69501 17.2451 7.83001Z" fill="white" stroke="#656D7E" stroke-width="1.2" stroke-linecap="round" stroke-linejoin="round"/>
<path d="M12.2957 14.5425C11.8307 14.8575 11.2457 15.12 10.5332 15.3525L9.34824 15.7425C6.37074 16.7025 4.80324 15.9 3.83574 12.9225L2.87574 9.96001C1.91574 6.98251 2.71074 5.40751 5.68824 4.44751L6.87324 4.05751C7.18074 3.96001 7.47324 3.87751 7.75074 3.82501C7.52574 4.28251 7.34574 4.83751 7.19574 5.47501L6.46074 8.61751C5.72574 11.7525 6.69324 13.2975 9.82074 14.04L11.0807 14.34C11.5157 14.445 11.9207 14.5125 12.2957 14.5425Z" fill="white" stroke="#656D7E" stroke-width="1.2" stroke-linecap="round" stroke-linejoin="round"/>
</svg>
